<mxfile host="drawio-plugin" modified="2024-10-16T16:11:00.589Z" agent="5.0 (Windows NT 10.0; Win64; x64) AppleWebKit/537.36 (KHTML, like Gecko) Chrome/122.0.0.0 Safari/537.36" etag="-8NoRAanRNAOQynFfeqH" version="15.5.4" type="embed"><diagram id="30VscKR8kbTcILaUQPa2" name="Page-1"><mxGraphModel dx="1614" dy="1442" grid="1" gridSize="10" guides="1" tooltips="1" connect="1" arrows="1" fold="1" page="1" pageScale="1" pageWidth="850" pageHeight="1100" math="0" shadow="0"><root><mxCell id="0"/><mxCell id="1" parent="0"/><mxCell id="24" style="edgeStyle=orthogonalEdgeStyle;rounded=0;orthogonalLoop=1;jettySize=auto;html=1;" edge="1" parent="1" source="2" target="23"><mxGeometry relative="1" as="geometry"/></mxCell><mxCell id="2" value="(0) Position" style="rounded=0;whiteSpace=wrap;html=1;fillColor=#60a917;fontColor=#ffffff;strokeColor=#2D7600;" parent="1" vertex="1"><mxGeometry x="340" y="260" width="120" height="60" as="geometry"/></mxCell><mxCell id="6" style="edgeStyle=orthogonalEdgeStyle;rounded=0;orthogonalLoop=1;jettySize=auto;html=1;" parent="1" source="3" target="2" edge="1"><mxGeometry relative="1" as="geometry"/></mxCell><mxCell id="3" value="(1) Velocity" style="rounded=0;whiteSpace=wrap;html=1;fillColor=#a20025;fontColor=#ffffff;strokeColor=#6F0000;" parent="1" vertex="1"><mxGeometry x="340" y="160" width="120" height="60" as="geometry"/></mxCell><mxCell id="5" style="edgeStyle=orthogonalEdgeStyle;rounded=0;orthogonalLoop=1;jettySize=auto;html=1;" parent="1" source="4" target="3" edge="1"><mxGeometry relative="1" as="geometry"/></mxCell><mxCell id="4" value="(1) +Movement" style="rounded=0;whiteSpace=wrap;html=1;fillColor=#BA002B;fontColor=#ffffff;strokeColor=#6F0000;" parent="1" vertex="1"><mxGeometry x="130" y="160" width="120" height="60" as="geometry"/></mxCell><mxCell id="8" style="edgeStyle=orthogonalEdgeStyle;rounded=0;orthogonalLoop=1;jettySize=auto;html=1;" parent="1" source="7" target="3" edge="1"><mxGeometry relative="1" as="geometry"/></mxCell><mxCell id="7" value="(2) Acceleration" style="rounded=0;whiteSpace=wrap;html=1;fillColor=#e51400;fontColor=#ffffff;strokeColor=#B20000;" parent="1" vertex="1"><mxGeometry x="340" y="60" width="120" height="60" as="geometry"/></mxCell><mxCell id="10" style="edgeStyle=orthogonalEdgeStyle;rounded=0;orthogonalLoop=1;jettySize=auto;html=1;fillColor=#e51400;strokeColor=#B2B2B2;" parent="1" source="9" target="7" edge="1"><mxGeometry relative="1" as="geometry"/></mxCell><mxCell id="9" value="(2) +Burst" style="rounded=0;whiteSpace=wrap;html=1;fillColor=#ED1500;fontColor=#ffffff;strokeColor=#B20000;" parent="1" vertex="1"><mxGeometry x="130" y="60" width="120" height="60" as="geometry"/></mxCell><mxCell id="12" style="edgeStyle=orthogonalEdgeStyle;rounded=0;orthogonalLoop=1;jettySize=auto;html=1;strokeColor=#B2B2B2;" parent="1" source="11" target="3" edge="1"><mxGeometry relative="1" as="geometry"/></mxCell><mxCell id="11" value="(2) Decay" style="rounded=0;whiteSpace=wrap;html=1;fillColor=#e51400;fontColor=#ffffff;strokeColor=#B20000;" parent="1" vertex="1"><mxGeometry x="550" y="160" width="120" height="60" as="geometry"/></mxCell><mxCell id="14" style="edgeStyle=orthogonalEdgeStyle;rounded=0;orthogonalLoop=1;jettySize=auto;html=1;strokeColor=#B2B2B2;" parent="1" source="13" target="7" edge="1"><mxGeometry relative="1" as="geometry"/></mxCell><mxCell id="13" value="(3) Junk" style="rounded=0;whiteSpace=wrap;html=1;fillColor=#f0a30a;fontColor=#000000;strokeColor=#BD7000;" parent="1" vertex="1"><mxGeometry x="340" y="-50" width="120" height="60" as="geometry"/></mxCell><mxCell id="16" style="edgeStyle=orthogonalEdgeStyle;rounded=0;orthogonalLoop=1;jettySize=auto;html=1;strokeColor=#B2B2B2;" parent="1" source="15" target="13" edge="1"><mxGeometry relative="1" as="geometry"/></mxCell><mxCell id="15" value="(3) +Pull" style="rounded=0;whiteSpace=wrap;html=1;fillColor=#f0a30a;fontColor=#000000;strokeColor=#BD7000;" parent="1" vertex="1"><mxGeometry x="130" y="-50" width="120" height="60" as="geometry"/></mxCell><mxCell id="18" style="edgeStyle=orthogonalEdgeStyle;rounded=0;orthogonalLoop=1;jettySize=auto;html=1;entryX=1;entryY=0.5;entryDx=0;entryDy=0;strokeColor=#B2B2B2;" parent="1" source="17" target="7" edge="1"><mxGeometry relative="1" as="geometry"/></mxCell><mxCell id="17" value="(3) Silence" style="rounded=0;whiteSpace=wrap;html=1;fillColor=#f0a30a;fontColor=#000000;strokeColor=#BD7000;" parent="1" vertex="1"><mxGeometry x="550" y="60" width="120" height="60" as="geometry"/></mxCell><mxCell id="19" value="Currently 3. order changes(yellow) are not implemented cause of complications with frame independence.&lt;br&gt;&lt;br&gt;Already existing problem is that acceleration and decay are considered independent to simplify calculation. In reality acceleration would affect decay." style="rounded=0;whiteSpace=wrap;html=1;" parent="1" vertex="1"><mxGeometry x="-410" y="50" width="410" height="180" as="geometry"/></mxCell><mxCell id="20" value="Reasons to consider (3):&lt;br&gt;1. gradual change to gravity (Junk)&lt;br&gt;2. Black holes, existing and fading away (Silence)&lt;br&gt;&lt;br&gt;Problems:&lt;br&gt;difficulties with frame independence&lt;br&gt;it would need to act on all accelerators separatly" style="rounded=0;whiteSpace=wrap;html=1;" parent="1" vertex="1"><mxGeometry x="750" y="-90" width="310" height="110" as="geometry"/></mxCell><mxCell id="21" value="Events in time:&lt;br&gt;adding position (teleportation)&lt;br&gt;adding velocity (throw)&lt;br&gt;adding acceleration (new gravity field)&lt;br&gt;&lt;br&gt;For any event in time dt is unnecessary.&lt;br&gt;Events in time only happen at some frame, this has solutionf like CBF for gd, not needed rn." style="rounded=0;whiteSpace=wrap;html=1;" parent="1" vertex="1"><mxGeometry x="770" y="200" width="230" height="150" as="geometry"/></mxCell><mxCell id="22" value="In extreme we get to differential calculus. Approximations are fine." style="rounded=0;whiteSpace=wrap;html=1;" parent="1" vertex="1"><mxGeometry x="-350" y="230" width="270" height="50" as="geometry"/></mxCell><mxCell id="23" value="(0), (1), (2) implemented" style="rounded=0;whiteSpace=wrap;html=1;" vertex="1" parent="1"><mxGeometry x="340" y="360" width="120" height="60" as="geometry"/></mxCell></root></mxGraphModel></diagram></mxfile>